<svg width="488" height="492" viewBox="0 0 488 492" fill="none" xmlns="http://www.w3.org/2000/svg">
<rect width="488" height="492" fill="#F5F5F5"/>
<path fill-rule="evenodd" clip-rule="evenodd" d="M216.826 2.23702C180.758 6.87803 149.942 17.39 119.604 35.401C82.281 57.559 49.236 91.752 28.802 129.359C14.331 155.99 4.71801 186.218 1.50001 215.204C-0.766991 235.623 0.762008 275.331 4.52201 293.704C6.74501 304.567 13.599 327.769 16.485 334.204C16.979 335.304 19.083 340.254 21.161 345.204C34.691 377.436 59.853 410.743 88.255 434.017C119.258 459.422 151.335 475.818 187.995 485C230.583 495.667 280.49 493.45 322.384 479.03C361.03 465.729 404.911 435.628 427.821 406.704C430.653 403.129 433.468 399.679 434.078 399.036C436.175 396.829 449.286 378.201 451.556 374.204C464.866 350.768 471.753 334.903 477.858 313.614C484.974 288.797 487.488 270.406 487.492 243.14C487.496 216.42 485.094 199.505 477.846 175.204C473.355 160.148 469.977 151.616 462.665 136.865C457.506 126.457 448.121 110.028 446.578 108.704C446.257 108.429 444.438 105.954 442.535 103.204C440.632 100.454 438.72 98.054 438.285 97.871C437.851 97.687 437.495 96.9 437.495 96.121C437.495 95.342 437.137 94.704 436.7 94.704C436.264 94.704 434.126 92.35 431.95 89.472C422.764 77.322 392.56 49.494 383.223 44.578C381.998 43.932 380.77 43.12 380.495 42.771C380.22 42.423 377.745 40.729 374.995 39.006C343.386 19.201 307.521 6.55403 270.663 2.21402C255.473 0.425022 230.825 0.436022 216.826 2.23702ZM265.995 25.177C294.204 28.288 314.956 34.296 340.347 46.706C382.691 67.401 418.705 102.202 440.009 143.012C442.935 148.618 446.279 155.679 447.44 158.704C448.6 161.729 449.969 165.104 450.482 166.204C455.102 176.121 462.43 206.478 462.477 215.895C462.487 217.925 462.844 219.801 463.27 220.065C464.162 220.616 463.917 261.95 462.981 268.704C459.98 290.375 458.226 298.449 452.987 314.704C447.656 331.243 439.73 349.016 432.739 360.106C426.838 369.467 424.956 372.221 424.245 372.537C423.832 372.721 423.495 373.471 423.495 374.204C423.495 374.937 423.15 375.687 422.728 375.871C422.306 376.054 420.187 378.679 418.02 381.704C410.955 391.566 393.511 409.474 381.495 419.201C375.075 424.399 357.836 436.704 356.975 436.704C356.73 436.704 353.71 438.421 350.263 440.518C333.076 450.978 309.666 459.852 286.495 464.689C277.605 466.546 255.751 468.664 245.495 468.664C235.262 468.664 213.419 466.549 204.495 464.695C190.309 461.746 179.429 458.515 165.249 453.037L160.502 451.204L160.507 269.204L160.511 87.204L163.253 85.837C189.685 72.662 213.144 66.761 239.245 66.722L251.495 66.704V76.704V86.704L237.745 86.722C223.63 86.74 210.877 88.227 199.579 91.173C190.443 93.554 186.395 95.714 183.78 99.602L181.495 103V171.28C181.495 232.601 181.658 239.725 183.099 241.165C184.542 242.608 190.654 242.733 244.349 242.419C309.263 242.039 305.323 242.372 317.429 236.237C328.523 230.616 337.912 218.671 342.162 204.769C344.577 196.87 344.498 180.142 342.008 172.204C339.624 164.607 334.23 154.475 329.589 148.877C325.381 143.802 316.69 137.042 310.723 134.204C311.495 134.204 305.495 131.204 305.495 131.204L296.495 130.483L288.495 130.242C288.495 130.242 276.312 129.955 275.135 130.242C273.958 130.528 257.92 130.637 239.495 130.483L205.995 130.204L205.972 121.873C205.959 117.269 206.407 113.242 206.972 112.873C207.535 112.505 220.854 111.979 236.571 111.704L265.146 111.204L269.293 108.458C275.836 104.125 276.785 101.34 277.3 84.954C277.811 68.671 277.035 69.619 287.664 72.302C297.975 74.905 305.428 77.588 315.371 82.276C325.886 87.234 325.623 86.049 318.128 94.704C313.036 100.584 311.221 104.853 312.444 108.071C312.986 109.495 316.461 112.512 320.688 115.227C330.253 121.371 343.763 135.374 349.757 145.357C363.494 168.238 366.181 197.874 356.77 222.684C348.839 243.593 334.995 249.704 311.329 259.704H306.995H300.495C300.495 259.704 276.967 259.704 242.152 259.704C192.894 259.704 185.665 259.897 183.718 261.261L181.495 262.817V349.038C181.495 423.251 181.7 435.551 182.964 437.356C185.104 440.411 197.4 444.238 216.495 447.793C224.848 449.348 231.091 449.728 247.027 449.652C279.277 449.499 300.459 444.789 329.495 431.316C342.909 425.091 355.575 416.65 369.99 404.329C383.359 392.902 384.932 389.588 380.038 383.172C378.687 381.4 377.787 379.67 378.038 379.327C378.289 378.985 378.233 378.891 377.914 379.119C377.594 379.347 375.731 378.447 373.774 377.119C371.817 375.791 369.394 374.704 368.39 374.704C367.009 374.704 352.969 385.878 349.495 389.741C348.332 391.034 336.604 399.543 331.995 402.437C320.146 409.878 301.947 417.718 288.339 421.244C263.787 427.606 234.009 428.089 211.245 422.493L206.495 421.326V356.097C206.495 320.221 206.198 290.043 205.836 289.036C205.028 286.791 219.99 302.242 237.469 321.704C242.656 327.479 251.014 336.479 256.043 341.704C261.072 346.929 269.246 355.704 274.208 361.204C279.17 366.704 287.765 375.591 293.308 380.954L303.387 390.704H309.314C313.171 390.704 316.944 389.96 320.118 388.572C326.83 385.638 340.018 376.854 345.745 371.503C349.817 367.698 350.495 366.516 350.495 363.223C350.495 360.169 349.844 358.801 347.315 356.543C342.807 352.518 338.794 352.782 330.333 357.66C318.487 364.49 311.079 365.512 306.668 360.923C295.87 349.691 264.641 315.058 251.995 300.292C248.145 295.797 243.757 290.792 242.245 289.171C240.733 287.551 239.495 285.882 239.495 285.464C239.495 285.046 247.37 284.704 256.995 284.704H274.495H275.495H285.995L311.329 284.704C337.998 275.482 358.775 272.283 372.276 246.933C390.217 213.245 391.107 174.096 374.669 141.602C368.949 130.295 361.974 120.343 353.472 111.359L345.756 103.204L350.136 98.704C363.434 85.042 362.486 81.603 341.995 69.199C322.313 57.283 299.093 49.033 272.495 44.505C260.733 42.503 224.368 42.809 211.509 45.019C171.351 51.919 134.903 69.941 109.745 95.337C104.614 100.517 103.498 102.233 103.51 104.925C103.542 111.7 106.053 112.704 122.968 112.704H136.573L136.284 121.454L135.995 130.204L115.072 130.475C101.697 130.648 93.671 131.143 92.822 131.847C91.845 132.658 91.495 136.344 91.495 145.826V158.704H87.964C85.439 158.704 82.52 157.421 77.724 154.204C67.396 147.275 63.357 148.368 58.392 159.434C49.767 178.657 43.623 205.927 43.629 224.955C43.632 235.653 43.696 235.704 56.894 235.704C68.329 235.704 68.495 235.537 68.495 224.02C68.495 215.403 71.33 196.417 73.954 187.454L75.637 181.704H83.566H91.495V218.204V254.704H69.718C42.8 254.704 43.492 254.419 43.503 265.511C43.507 269.742 43.977 276.129 44.549 279.704C45.12 283.279 45.792 287.554 46.042 289.204C50.935 321.449 69.056 356.429 94.397 382.546L101.52 389.887L96.848 396.25C94.279 399.749 91.464 402.886 90.593 403.22C88.362 404.076 77.637 392.443 65.651 376.165C57.672 365.33 57.938 365.749 51.084 353.204C28.647 312.134 19.896 267.024 24.994 218.718C25.818 210.908 26.704 204.174 26.964 203.755C27.223 203.335 27.682 201.027 27.984 198.627C28.729 192.692 35.466 170.234 38.909 162.204C39.616 160.554 40.799 157.629 41.537 155.704C45.598 145.115 61.413 119.354 69.163 110.704C69.903 109.879 72.396 106.954 74.705 104.204C80.03 97.862 98.433 79.426 104.995 73.859C107.745 71.527 115.307 66.029 121.799 61.643C164.605 32.723 216.168 19.683 265.995 25.177ZM379.995 100.589C375.346 102.73 372.495 107.06 372.495 111.981C372.495 114.652 373.667 116.914 377.598 121.827C393.869 142.162 403.459 159.216 410.947 181.132C414.525 191.603 419.12 210.45 419.984 218.203C421.592 232.615 422.434 253.009 421.45 253.704C421.061 253.979 420.481 258.029 420.162 262.704C419.844 267.379 418.681 275.556 417.578 280.874C414.088 297.706 415.608 296.799 405.453 288.113C393.277 277.7 393.667 278.329 396.299 273.362C400.215 265.968 398.765 259.447 392.484 256.198C385.835 252.76 381.473 255.087 374.305 265.898C367.07 276.809 366.499 277.977 366.475 281.888C366.458 284.821 367.816 286.516 378.225 296.564C384.699 302.811 393.237 310.617 397.199 313.91L404.404 319.898L400.278 326.551C393.868 336.889 393.68 337.054 390.582 335.03C387.565 333.058 372.764 320.585 360.254 309.47C349.246 299.691 347.645 299.495 336.595 306.571C326.813 312.835 318.685 316.868 310.245 319.646C305.108 321.336 303.495 322.314 303.495 323.738C303.495 324.767 307.02 329.23 311.329 333.656C321.129 343.723 321.892 343.805 335.952 336.297L346.078 330.889L351.036 334.472C353.764 336.442 364.068 344.795 373.935 353.035C383.802 361.274 393.052 368.691 394.491 369.516C397.476 371.23 401.116 370.651 404.14 367.981C406.306 366.069 416.495 351.436 416.495 350.237C416.495 349.839 417.355 348.305 418.405 346.83C422.373 341.257 427.903 329.542 434.04 313.704C436.734 306.752 440.968 289.862 443.189 277.204C445.424 264.463 445.683 226.732 443.628 213.204C438.417 178.905 425.054 146.294 404.5 117.711C395.812 105.63 392.384 101.973 388.043 100.16C383.87 98.416 384.827 98.365 379.995 100.589ZM136.495 270.326C136.495 380.298 136.409 385.882 134.745 384.581C125.129 377.063 116.624 369.304 116.193 367.656C115.576 365.298 115.582 156.571 116.199 155.454C116.427 155.042 121.086 154.704 126.554 154.704H136.495V270.326ZM300.643 157.852C313.734 163.989 320.144 175.309 319.283 190.768C318.902 197.621 318.393 199.348 315.28 204.363C313.319 207.523 309.951 211.385 307.796 212.946C300.319 218.362 297.094 218.679 249.372 218.692L205.748 218.704L205.564 186.674L205.381 154.644L250.188 154.924L294.995 155.204L300.643 157.852ZM91.495 309.204C91.495 325.429 91.114 338.704 90.647 338.704C88.85 338.704 78.51 316.655 75.173 305.704C72.318 296.337 69.495 283.743 69.495 280.372C69.495 280.005 74.445 279.704 80.495 279.704H91.495V309.204ZM226.13 346.777L223.495 348.849V374.554C223.495 403.01 223.615 403.598 229.842 405.654C231.946 406.348 239.999 406.639 251.589 406.441C266.948 406.177 270.618 405.822 273.756 404.295C280.679 400.927 279.848 396.636 270.59 387.961L264.995 382.719L256.745 382.711L248.495 382.704V371.154C248.495 357.187 247.727 355.343 239.342 349.17C232.587 344.198 230.003 343.73 226.13 346.777ZM136.495 425.936V438.902L132.745 436.7C126.567 433.073 116.495 425.664 116.495 424.747C116.495 424.276 119.232 420.267 122.576 415.837L128.657 407.783L132.576 410.376L136.495 412.97V425.936Z" fill="black"/>
</svg>
