<svg xmlns="http://www.w3.org/2000/svg" viewBox="0 0 96 96" fill="#FFF" stroke-miterlimit="10" stroke-width="3">
	<path d="M60.9579,8h-42.688C17.5685,8,17,8.5685,17,9.2698v77.4603C17,87.4315,17.5685,88,18.2698,88h59.6825 c0.7013,0,1.2698-0.5685,1.2698-1.2698V26.2643c0-0.7858-0.3122-1.5395-0.8678-2.0951L63.053,8.8678 C62.4974,8.3122,61.7437,8,60.9579,8z"/>
	<path fill="#979593" d="M79.1211,24.707L61.293,6.8789C60.7266,6.312,59.9736,6,59.1719,6H19c-1.6543,0-3,1.3457-3,3v78 c0,1.6543,1.3457,3,3,3h58c1.6543,0,3-1.3457,3-3V26.8281C80,26.0273,79.6875,25.2739,79.1211,24.707z M60,8.4141L77.5857,26H61 c-0.5518,0-1-0.4482-1-1V8.4141z M77,88H19c-0.5518,0-1-0.4482-1-1V9c0-0.5518,0.4482-1,1-1h39v17c0,1.6543,1.3457,3,3,3h17v59 C78,87.5518,77.5518,88,77,88z"/>
	<path fill="#C8C6C4" d="M71 37H25c-.5523 0-1-.4477-1-1l0 0c0-.5523.4477-1 1-1h46c.5523 0 1 .4477 1 1l0 0C72 36.5523 71.5523 37 71 37zM71 43H25c-.5523 0-1-.4477-1-1l0 0c0-.5523.4477-1 1-1h46c.5523 0 1 .4477 1 1l0 0C72 42.5523 71.5523 43 71 43zM71 49H25c-.5523 0-1-.4477-1-1l0 0c0-.5523.4477-1 1-1h46c.5523 0 1 .4477 1 1l0 0C72 48.5523 71.5523 49 71 49zM71 55H25c-.5523 0-1-.4477-1-1l0 0c0-.5523.4477-1 1-1h46c.5523 0 1 .4477 1 1l0 0C72 54.5523 71.5523 55 71 55z"/>
	<path fill="#D65532" d="M66.0467 63.0028l13.9589.0384c1.1046.003 1.9975.9009 1.9945 2.0055l-.0357 12.9589c-.003 1.1046-.9009 1.9975-2.0055 1.9945L66 79.9617c-.5523-.0015-.9988-.4505-.9972-1.0028L65.0439 64C65.0454 63.4477 65.4944 63.0012 66.0467 63.0028zM31 78.9973c0 .5534-.4494 1.0015-1.0027 1l-14.0343-.0384c-1.1069-.003-1.966-.9009-1.9629-2.0055V64.9945c.003-1.1046.9028-1.9975 2.0097-1.9945l13.993.0384c.5512.0015.9973.4488.9973 1V78.9973z"/>
	<path fill="none" stroke="#D65532" stroke-linecap="round" stroke-linejoin="round" d="M58.5,80.5h-21c-1.1046,0-2-0.8954-2-2v-14c0-1.1046,0.8954-2,2-2h21c1.1046,0,2,0.8954,2,2v14 C60.5,79.6046,59.6046,80.5,58.5,80.5z"/>
</svg>