<svg width="82" height="69" viewBox="0 0 82 69" fill="none" xmlns="http://www.w3.org/2000/svg">
<path fill-rule="evenodd" clip-rule="evenodd" d="M3.65052 0H78.3495C80.3583 0 82 1.63968 82 3.64596V65.354C82 67.3603 80.3583 69 78.3495 69H3.65052C1.64173 69 0 67.3603 0 65.354V3.64596C0 1.63968 1.64173 0 3.65052 0ZM21.2491 25.695L33.1217 37.9727L34.5498 39.3924L33.135 40.8321L21.1423 53.5297L17.7588 50.197L28.3366 39.4324L17.8922 29.0611L21.2491 25.695ZM62.7997 52.9298H36.4986V48.3707H62.7997V52.9298ZM25.4869 6.55207C27.6159 6.55207 29.3443 8.2784 29.3443 10.4047C29.3443 12.5309 27.6159 14.2572 25.4869 14.2572C23.358 14.2572 21.6295 12.5309 21.6295 10.4047C21.6295 8.2784 23.358 6.55207 25.4869 6.55207ZM12.6467 6.55207C14.7756 6.55207 16.5041 8.2784 16.5041 10.4047C16.5041 12.5309 14.7756 14.2572 12.6467 14.2572C10.5178 14.2572 8.78929 12.5309 8.78929 10.4047C8.78929 8.2784 10.5111 6.55207 12.6467 6.55207ZM4.99862 3.60597H77.0147C77.7822 3.60597 78.4095 4.23252 78.4095 4.99903V17.21H3.60381V4.99903C3.60381 4.23252 4.23114 3.60597 4.99862 3.60597Z" fill="#FAFAFA"/>
</svg>
